<?xml version="1.0" encoding="UTF-8" standalone="no"?>
<!DOCTYPE svg PUBLIC "-//W3C//DTD SVG 1.1//EN"
 "http://www.w3.org/Graphics/SVG/1.1/DTD/svg11.dtd">
<!-- Generated by graphviz version 2.40.1 (20161225.0304)
 -->
<!-- Title: dependencies Pages: 1 -->
<svg width="579pt" height="284pt"
 viewBox="0.00 0.00 579.00 284.00" xmlns="http://www.w3.org/2000/svg" xmlns:xlink="http://www.w3.org/1999/xlink">
<g id="graph0" class="graph" transform="scale(1 1) rotate(0) translate(4 280)">
<title>dependencies</title>
<polygon fill="#ffffff" stroke="transparent" points="-4,4 -4,-280 575,-280 575,4 -4,4"/>
<text text-anchor="start" x="264.5091" y="-42.4" font-family="sans-serif" font-weight="bold" font-size="14.00" fill="#000000">Legend</text>
<polygon fill="#ffffb3" stroke="transparent" points="51.5,-10 51.5,-30 71.5,-30 71.5,-10 51.5,-10"/>
<text text-anchor="start" x="75.129" y="-15.4" font-family="sans-serif" font-size="14.00" fill="#000000"> &#160;Declarations</text>
<polygon fill="#8dd3c7" stroke="transparent" points="164.5,-10 164.5,-30 184.5,-30 184.5,-10 164.5,-10"/>
<text text-anchor="start" x="188.2251" y="-15.4" font-family="sans-serif" font-size="14.00" fill="#000000"> &#160;Module</text>
<polygon fill="#80b1d3" stroke="transparent" points="250.5,-10 250.5,-30 270.5,-30 270.5,-10 250.5,-10"/>
<text text-anchor="start" x="274.2812" y="-15.4" font-family="sans-serif" font-size="14.00" fill="#000000"> &#160;Bootstrap</text>
<polygon fill="#fdb462" stroke="transparent" points="347.5,-10 347.5,-30 367.5,-30 367.5,-10 347.5,-10"/>
<text text-anchor="start" x="371.1732" y="-15.4" font-family="sans-serif" font-size="14.00" fill="#000000"> &#160;Providers</text>
<polygon fill="#fb8072" stroke="transparent" points="443.5,-10 443.5,-30 463.5,-30 463.5,-10 443.5,-10"/>
<text text-anchor="start" x="467.2258" y="-15.4" font-family="sans-serif" font-size="14.00" fill="#000000"> &#160;Exports</text>
<g id="clust1" class="cluster">
<title>cluster_AppModule</title>
<polygon fill="none" stroke="#000000" stroke-dasharray="1,5" points="8,-70 8,-268 563,-268 563,-70 8,-70"/>
</g>
<g id="clust2" class="cluster">
<title>cluster_AppModule_declarations</title>
<polygon fill="none" stroke="#000000" points="168,-78 168,-130 555,-130 555,-78 168,-78"/>
</g>
<g id="clust6" class="cluster">
<title>cluster_AppModule_imports</title>
<polygon fill="none" stroke="#000000" points="16,-78 16,-130 160,-130 160,-78 16,-78"/>
</g>
<g id="clust8" class="cluster">
<title>cluster_AppModule_bootstrap</title>
<polygon fill="none" stroke="#000000" points="237,-208 237,-260 361,-260 361,-208 237,-208"/>
</g>
<!-- AppComponent -->
<g id="node1" class="node">
<title>AppComponent</title>
<polygon fill="#ffffb3" stroke="#000000" points="546.9399,-122 441.0601,-122 441.0601,-86 546.9399,-86 546.9399,-122"/>
<text text-anchor="middle" x="494" y="-99.8" font-family="Times,serif" font-size="14.00" fill="#000000">AppComponent</text>
</g>
<!-- AppModule -->
<g id="node4" class="node">
<title>AppModule</title>
<polygon fill="#8dd3c7" stroke="#000000" points="340.6571,-187 337.6571,-191 316.6571,-191 313.6571,-187 257.3429,-187 257.3429,-151 340.6571,-151 340.6571,-187"/>
<text text-anchor="middle" x="299" y="-164.8" font-family="Times,serif" font-size="14.00" fill="#000000">AppModule</text>
</g>
<!-- AppComponent&#45;&gt;AppModule -->
<g id="edge1" class="edge">
<title>AppComponent&#45;&gt;AppModule</title>
<path fill="none" stroke="#000000" d="M494,-122.1061C494,-141.3391 494,-169 494,-169 494,-169 350.8324,-169 350.8324,-169"/>
<polygon fill="#000000" stroke="#000000" points="350.8324,-165.5001 340.8324,-169 350.8324,-172.5001 350.8324,-165.5001"/>
</g>
<!-- HomeComponent -->
<g id="node2" class="node">
<title>HomeComponent</title>
<polygon fill="#ffffb3" stroke="#000000" points="423.5451,-122 308.4549,-122 308.4549,-86 423.5451,-86 423.5451,-122"/>
<text text-anchor="middle" x="366" y="-99.8" font-family="Times,serif" font-size="14.00" fill="#000000">HomeComponent</text>
</g>
<!-- HomeComponent&#45;&gt;AppModule -->
<g id="edge2" class="edge">
<title>HomeComponent&#45;&gt;AppModule</title>
<path fill="none" stroke="#000000" d="M324.5281,-122.1061C324.5281,-122.1061 324.5281,-140.991 324.5281,-140.991"/>
<polygon fill="#000000" stroke="#000000" points="321.0281,-140.9909 324.5281,-150.991 328.0281,-140.991 321.0281,-140.9909"/>
</g>
<!-- LoginComponent -->
<g id="node3" class="node">
<title>LoginComponent</title>
<polygon fill="#ffffb3" stroke="#000000" points="290.2758,-122 175.7242,-122 175.7242,-86 290.2758,-86 290.2758,-122"/>
<text text-anchor="middle" x="233" y="-99.8" font-family="Times,serif" font-size="14.00" fill="#000000">LoginComponent</text>
</g>
<!-- LoginComponent&#45;&gt;AppModule -->
<g id="edge3" class="edge">
<title>LoginComponent&#45;&gt;AppModule</title>
<path fill="none" stroke="#000000" d="M273.7798,-122.1061C273.7798,-122.1061 273.7798,-140.991 273.7798,-140.991"/>
<polygon fill="#000000" stroke="#000000" points="270.2799,-140.9909 273.7798,-150.991 277.2799,-140.991 270.2799,-140.9909"/>
</g>
<!-- AppComponent  -->
<g id="node6" class="node">
<title>AppComponent </title>
<polygon fill="#80b1d3" stroke="#000000" points="353.439,-252 244.561,-252 244.561,-216 353.439,-216 353.439,-252"/>
<text text-anchor="middle" x="299" y="-229.8" font-family="Times,serif" font-size="14.00" fill="#000000">AppComponent </text>
</g>
<!-- AppModule&#45;&gt;AppComponent  -->
<g id="edge5" class="edge">
<title>AppModule&#45;&gt;AppComponent </title>
<path fill="none" stroke="#000000" stroke-dasharray="1,5" d="M299,-187.1061C299,-187.1061 299,-205.991 299,-205.991"/>
<polygon fill="#000000" stroke="#000000" points="295.5001,-205.9909 299,-215.991 302.5001,-205.991 295.5001,-205.9909"/>
</g>
<!-- AppRoutingModule -->
<g id="node5" class="node">
<title>AppRoutingModule</title>
<polygon fill="#8dd3c7" stroke="#000000" points="152.2744,-122 149.2744,-126 128.2744,-126 125.2744,-122 23.7256,-122 23.7256,-86 152.2744,-86 152.2744,-122"/>
<text text-anchor="middle" x="88" y="-99.8" font-family="Times,serif" font-size="14.00" fill="#000000">AppRoutingModule</text>
</g>
<!-- AppRoutingModule&#45;&gt;AppModule -->
<g id="edge4" class="edge">
<title>AppRoutingModule&#45;&gt;AppModule</title>
<path fill="none" stroke="#000000" d="M88,-122.1061C88,-141.3391 88,-169 88,-169 88,-169 247.3132,-169 247.3132,-169"/>
<polygon fill="#000000" stroke="#000000" points="247.3132,-172.5001 257.3132,-169 247.3132,-165.5001 247.3132,-172.5001"/>
</g>
</g>
</svg>
